<mxfile host="app.diagrams.net" modified="2024-02-04T16:00:19.338Z" agent="Mozilla/5.0 (Windows NT 10.0; Win64; x64) AppleWebKit/537.36 (KHTML, like Gecko) Chrome/121.0.0.0 Safari/537.36" etag="9NX8kU9dUTgFPN6C9q2X" version="23.1.1" type="device">
  <diagram name="Page-1" id="854VhVpSz-PvbN_Egi-8">
    <mxGraphModel dx="1878" dy="695" grid="1" gridSize="10" guides="1" tooltips="1" connect="1" arrows="1" fold="1" page="1" pageScale="1" pageWidth="1100" pageHeight="850" math="0" shadow="0">
      <root>
        <mxCell id="0" />
        <mxCell id="1" parent="0" />
        <mxCell id="kOvlzaeDpagEmNkXSfpu-49" value="User" style="rounded=0;whiteSpace=wrap;html=1;shadow=1;" vertex="1" parent="1">
          <mxGeometry x="250" y="890" width="120" height="60" as="geometry" />
        </mxCell>
        <mxCell id="kOvlzaeDpagEmNkXSfpu-50" value="" style="endArrow=none;html=1;rounded=0;exitX=0.39;exitY=-0.007;exitDx=0;exitDy=0;exitPerimeter=0;shadow=1;" edge="1" parent="1" source="kOvlzaeDpagEmNkXSfpu-49">
          <mxGeometry width="50" height="50" relative="1" as="geometry">
            <mxPoint x="265" y="870" as="sourcePoint" />
            <mxPoint x="235" y="740" as="targetPoint" />
          </mxGeometry>
        </mxCell>
        <mxCell id="kOvlzaeDpagEmNkXSfpu-51" value="" style="endArrow=none;html=1;rounded=0;exitX=0.383;exitY=-0.033;exitDx=0;exitDy=0;exitPerimeter=0;shadow=1;" edge="1" parent="1" source="kOvlzaeDpagEmNkXSfpu-49" target="kOvlzaeDpagEmNkXSfpu-52">
          <mxGeometry width="50" height="50" relative="1" as="geometry">
            <mxPoint x="210" y="870" as="sourcePoint" />
            <mxPoint x="150" y="750" as="targetPoint" />
            <Array as="points" />
          </mxGeometry>
        </mxCell>
        <mxCell id="kOvlzaeDpagEmNkXSfpu-52" value="id" style="ellipse;whiteSpace=wrap;html=1;shadow=1;" vertex="1" parent="1">
          <mxGeometry x="100" y="710" width="80" height="40" as="geometry" />
        </mxCell>
        <mxCell id="kOvlzaeDpagEmNkXSfpu-53" value="name" style="ellipse;whiteSpace=wrap;html=1;shadow=1;" vertex="1" parent="1">
          <mxGeometry x="195" y="700" width="80" height="40" as="geometry" />
        </mxCell>
        <mxCell id="kOvlzaeDpagEmNkXSfpu-54" value="password" style="ellipse;whiteSpace=wrap;html=1;shadow=1;" vertex="1" parent="1">
          <mxGeometry x="410" y="690" width="80" height="40" as="geometry" />
        </mxCell>
        <mxCell id="kOvlzaeDpagEmNkXSfpu-55" value="email(username)" style="ellipse;whiteSpace=wrap;html=1;shadow=1;" vertex="1" parent="1">
          <mxGeometry x="290" y="700" width="110" height="40" as="geometry" />
        </mxCell>
        <mxCell id="kOvlzaeDpagEmNkXSfpu-56" value="about&lt;br&gt;" style="ellipse;whiteSpace=wrap;html=1;shadow=1;" vertex="1" parent="1">
          <mxGeometry x="510" y="700" width="80" height="40" as="geometry" />
        </mxCell>
        <mxCell id="kOvlzaeDpagEmNkXSfpu-57" value="" style="endArrow=none;html=1;rounded=0;entryX=0.5;entryY=1;entryDx=0;entryDy=0;shadow=1;" edge="1" parent="1" target="kOvlzaeDpagEmNkXSfpu-55">
          <mxGeometry width="50" height="50" relative="1" as="geometry">
            <mxPoint x="300" y="890" as="sourcePoint" />
            <mxPoint x="320" y="740" as="targetPoint" />
          </mxGeometry>
        </mxCell>
        <mxCell id="kOvlzaeDpagEmNkXSfpu-58" value="" style="endArrow=none;html=1;rounded=0;exitX=0.403;exitY=0.02;exitDx=0;exitDy=0;exitPerimeter=0;entryX=0.345;entryY=1.07;entryDx=0;entryDy=0;entryPerimeter=0;shadow=1;" edge="1" parent="1" source="kOvlzaeDpagEmNkXSfpu-49">
          <mxGeometry width="50" height="50" relative="1" as="geometry">
            <mxPoint x="315.8399999999999" y="870.02" as="sourcePoint" />
            <mxPoint x="437.5999999999999" y="730" as="targetPoint" />
          </mxGeometry>
        </mxCell>
        <mxCell id="kOvlzaeDpagEmNkXSfpu-59" value="" style="endArrow=none;html=1;rounded=0;entryX=0.005;entryY=0.72;entryDx=0;entryDy=0;entryPerimeter=0;shadow=1;" edge="1" parent="1" target="kOvlzaeDpagEmNkXSfpu-56">
          <mxGeometry width="50" height="50" relative="1" as="geometry">
            <mxPoint x="300" y="890" as="sourcePoint" />
            <mxPoint x="480" y="790" as="targetPoint" />
          </mxGeometry>
        </mxCell>
        <mxCell id="O8dPDMGA-BvvGlYx2Ja5-42" value="can create" style="rhombus;whiteSpace=wrap;html=1;" vertex="1" parent="1">
          <mxGeometry x="760" y="800" width="80" height="80" as="geometry" />
        </mxCell>
        <mxCell id="O8dPDMGA-BvvGlYx2Ja5-44" value="Comment" style="rounded=0;whiteSpace=wrap;html=1;shadow=1;" vertex="1" parent="1">
          <mxGeometry x="690" y="1200" width="120" height="60" as="geometry" />
        </mxCell>
        <mxCell id="O8dPDMGA-BvvGlYx2Ja5-45" value="" style="endArrow=none;html=1;rounded=0;exitX=0.39;exitY=-0.007;exitDx=0;exitDy=0;exitPerimeter=0;shadow=1;entryX=0.5;entryY=1;entryDx=0;entryDy=0;" edge="1" parent="1" source="O8dPDMGA-BvvGlYx2Ja5-44" target="O8dPDMGA-BvvGlYx2Ja5-48">
          <mxGeometry width="50" height="50" relative="1" as="geometry">
            <mxPoint x="705" y="1180" as="sourcePoint" />
            <mxPoint x="675" y="1050" as="targetPoint" />
          </mxGeometry>
        </mxCell>
        <mxCell id="O8dPDMGA-BvvGlYx2Ja5-46" value="" style="endArrow=none;html=1;rounded=0;shadow=1;exitX=0.392;exitY=0.008;exitDx=0;exitDy=0;exitPerimeter=0;" edge="1" parent="1" source="O8dPDMGA-BvvGlYx2Ja5-44" target="O8dPDMGA-BvvGlYx2Ja5-47">
          <mxGeometry width="50" height="50" relative="1" as="geometry">
            <mxPoint x="730" y="1190" as="sourcePoint" />
            <mxPoint x="590" y="1060" as="targetPoint" />
            <Array as="points" />
          </mxGeometry>
        </mxCell>
        <mxCell id="O8dPDMGA-BvvGlYx2Ja5-47" value="user_id" style="ellipse;whiteSpace=wrap;html=1;shadow=1;fillColor=#663300;" vertex="1" parent="1">
          <mxGeometry x="590" y="1010" width="80" height="40" as="geometry" />
        </mxCell>
        <mxCell id="O8dPDMGA-BvvGlYx2Ja5-48" value="comment_id" style="ellipse;whiteSpace=wrap;html=1;shadow=1;" vertex="1" parent="1">
          <mxGeometry x="685" y="1000" width="80" height="40" as="geometry" />
        </mxCell>
        <mxCell id="O8dPDMGA-BvvGlYx2Ja5-50" value="comment" style="ellipse;whiteSpace=wrap;html=1;shadow=1;" vertex="1" parent="1">
          <mxGeometry x="780" y="1000" width="110" height="40" as="geometry" />
        </mxCell>
        <mxCell id="O8dPDMGA-BvvGlYx2Ja5-52" value="" style="endArrow=none;html=1;rounded=0;entryX=0.5;entryY=1;entryDx=0;entryDy=0;shadow=1;" edge="1" parent="1" target="O8dPDMGA-BvvGlYx2Ja5-50">
          <mxGeometry width="50" height="50" relative="1" as="geometry">
            <mxPoint x="740" y="1200" as="sourcePoint" />
            <mxPoint x="760" y="1050" as="targetPoint" />
          </mxGeometry>
        </mxCell>
        <mxCell id="IEXKmhQgGFk5n_kh-XI5-14" value="Post" style="rounded=0;whiteSpace=wrap;html=1;shadow=1;" vertex="1" parent="1">
          <mxGeometry x="1230" y="890" width="120" height="60" as="geometry" />
        </mxCell>
        <mxCell id="IEXKmhQgGFk5n_kh-XI5-15" value="" style="endArrow=none;html=1;rounded=0;exitX=0.39;exitY=-0.007;exitDx=0;exitDy=0;exitPerimeter=0;shadow=1;entryX=0.65;entryY=0.975;entryDx=0;entryDy=0;entryPerimeter=0;" edge="1" parent="1" source="IEXKmhQgGFk5n_kh-XI5-14" target="IEXKmhQgGFk5n_kh-XI5-18">
          <mxGeometry width="50" height="50" relative="1" as="geometry">
            <mxPoint x="1245" y="870" as="sourcePoint" />
            <mxPoint x="1215" y="740" as="targetPoint" />
          </mxGeometry>
        </mxCell>
        <mxCell id="IEXKmhQgGFk5n_kh-XI5-16" value="" style="endArrow=none;html=1;rounded=0;exitX=0.383;exitY=-0.033;exitDx=0;exitDy=0;exitPerimeter=0;shadow=1;" edge="1" parent="1" source="IEXKmhQgGFk5n_kh-XI5-14" target="IEXKmhQgGFk5n_kh-XI5-17">
          <mxGeometry width="50" height="50" relative="1" as="geometry">
            <mxPoint x="1190" y="870" as="sourcePoint" />
            <mxPoint x="1130" y="750" as="targetPoint" />
            <Array as="points" />
          </mxGeometry>
        </mxCell>
        <mxCell id="IEXKmhQgGFk5n_kh-XI5-17" value="post_id" style="ellipse;whiteSpace=wrap;html=1;shadow=1;" vertex="1" parent="1">
          <mxGeometry x="1030" y="740" width="80" height="40" as="geometry" />
        </mxCell>
        <mxCell id="IEXKmhQgGFk5n_kh-XI5-18" value="title" style="ellipse;whiteSpace=wrap;html=1;shadow=1;" vertex="1" parent="1">
          <mxGeometry x="1120" y="710" width="80" height="40" as="geometry" />
        </mxCell>
        <mxCell id="IEXKmhQgGFk5n_kh-XI5-19" value="image" style="ellipse;whiteSpace=wrap;html=1;shadow=1;" vertex="1" parent="1">
          <mxGeometry x="1390" y="690" width="80" height="40" as="geometry" />
        </mxCell>
        <mxCell id="IEXKmhQgGFk5n_kh-XI5-20" value="content" style="ellipse;whiteSpace=wrap;html=1;shadow=1;" vertex="1" parent="1">
          <mxGeometry x="1225" y="700" width="110" height="40" as="geometry" />
        </mxCell>
        <mxCell id="IEXKmhQgGFk5n_kh-XI5-21" value="user_id" style="ellipse;whiteSpace=wrap;html=1;shadow=1;fillColor=#663300;" vertex="1" parent="1">
          <mxGeometry x="1490" y="700" width="80" height="40" as="geometry" />
        </mxCell>
        <mxCell id="IEXKmhQgGFk5n_kh-XI5-22" value="" style="endArrow=none;html=1;rounded=0;entryX=0.5;entryY=1;entryDx=0;entryDy=0;shadow=1;" edge="1" parent="1" target="IEXKmhQgGFk5n_kh-XI5-20">
          <mxGeometry width="50" height="50" relative="1" as="geometry">
            <mxPoint x="1280" y="890" as="sourcePoint" />
            <mxPoint x="1300" y="740" as="targetPoint" />
          </mxGeometry>
        </mxCell>
        <mxCell id="IEXKmhQgGFk5n_kh-XI5-23" value="" style="endArrow=none;html=1;rounded=0;exitX=0.403;exitY=0.02;exitDx=0;exitDy=0;exitPerimeter=0;entryX=0.345;entryY=1.07;entryDx=0;entryDy=0;entryPerimeter=0;shadow=1;" edge="1" parent="1" source="IEXKmhQgGFk5n_kh-XI5-14">
          <mxGeometry width="50" height="50" relative="1" as="geometry">
            <mxPoint x="1295.84" y="870.02" as="sourcePoint" />
            <mxPoint x="1417.6" y="730" as="targetPoint" />
          </mxGeometry>
        </mxCell>
        <mxCell id="IEXKmhQgGFk5n_kh-XI5-24" value="" style="endArrow=none;html=1;rounded=0;entryX=0.005;entryY=0.72;entryDx=0;entryDy=0;entryPerimeter=0;shadow=1;" edge="1" parent="1" target="IEXKmhQgGFk5n_kh-XI5-21">
          <mxGeometry width="50" height="50" relative="1" as="geometry">
            <mxPoint x="1280" y="890" as="sourcePoint" />
            <mxPoint x="1460" y="790" as="targetPoint" />
          </mxGeometry>
        </mxCell>
        <mxCell id="IEXKmhQgGFk5n_kh-XI5-25" value="" style="endArrow=none;html=1;rounded=0;exitX=0.422;exitY=0.013;exitDx=0;exitDy=0;exitPerimeter=0;shadow=1;" edge="1" parent="1" source="IEXKmhQgGFk5n_kh-XI5-14" target="IEXKmhQgGFk5n_kh-XI5-26">
          <mxGeometry width="50" height="50" relative="1" as="geometry">
            <mxPoint x="1611" y="988" as="sourcePoint" />
            <mxPoint x="1465" y="850" as="targetPoint" />
            <Array as="points" />
          </mxGeometry>
        </mxCell>
        <mxCell id="IEXKmhQgGFk5n_kh-XI5-26" value="category_id" style="ellipse;whiteSpace=wrap;html=1;shadow=1;fillColor=#FF8000;" vertex="1" parent="1">
          <mxGeometry x="1580" y="720" width="80" height="40" as="geometry" />
        </mxCell>
        <mxCell id="IEXKmhQgGFk5n_kh-XI5-42" value="" style="endArrow=none;html=1;rounded=0;entryX=0;entryY=0.5;entryDx=0;entryDy=0;exitX=0.5;exitY=1;exitDx=0;exitDy=0;" edge="1" parent="1" source="kOvlzaeDpagEmNkXSfpu-49" target="IEXKmhQgGFk5n_kh-XI5-43">
          <mxGeometry width="50" height="50" relative="1" as="geometry">
            <mxPoint x="340" y="960" as="sourcePoint" />
            <mxPoint x="420" y="1090" as="targetPoint" />
          </mxGeometry>
        </mxCell>
        <mxCell id="IEXKmhQgGFk5n_kh-XI5-43" value="do" style="rhombus;whiteSpace=wrap;html=1;" vertex="1" parent="1">
          <mxGeometry x="385" y="1190" width="80" height="80" as="geometry" />
        </mxCell>
        <mxCell id="IEXKmhQgGFk5n_kh-XI5-44" value="" style="endArrow=none;html=1;rounded=0;exitX=1;exitY=0.5;exitDx=0;exitDy=0;entryX=0;entryY=0.5;entryDx=0;entryDy=0;entryPerimeter=0;" edge="1" parent="1" source="IEXKmhQgGFk5n_kh-XI5-43" target="O8dPDMGA-BvvGlYx2Ja5-44">
          <mxGeometry width="50" height="50" relative="1" as="geometry">
            <mxPoint x="460" y="1240" as="sourcePoint" />
            <mxPoint x="725" y="1380" as="targetPoint" />
          </mxGeometry>
        </mxCell>
        <mxCell id="IEXKmhQgGFk5n_kh-XI5-46" value="" style="endArrow=none;html=1;rounded=0;exitX=1;exitY=0.5;exitDx=0;exitDy=0;entryX=0;entryY=0.5;entryDx=0;entryDy=0;" edge="1" parent="1" target="O8dPDMGA-BvvGlYx2Ja5-42">
          <mxGeometry width="50" height="50" relative="1" as="geometry">
            <mxPoint x="370" y="920" as="sourcePoint" />
            <mxPoint x="640" y="1080" as="targetPoint" />
          </mxGeometry>
        </mxCell>
        <mxCell id="IEXKmhQgGFk5n_kh-XI5-47" value="" style="endArrow=none;html=1;rounded=0;exitX=1;exitY=0.5;exitDx=0;exitDy=0;entryX=0;entryY=0.5;entryDx=0;entryDy=0;" edge="1" parent="1" target="IEXKmhQgGFk5n_kh-XI5-14">
          <mxGeometry width="50" height="50" relative="1" as="geometry">
            <mxPoint x="840" y="840" as="sourcePoint" />
            <mxPoint x="1110" y="1000" as="targetPoint" />
          </mxGeometry>
        </mxCell>
        <mxCell id="IEXKmhQgGFk5n_kh-XI5-48" value="have" style="rhombus;whiteSpace=wrap;html=1;" vertex="1" parent="1">
          <mxGeometry x="1080" y="1180" width="80" height="80" as="geometry" />
        </mxCell>
        <mxCell id="IEXKmhQgGFk5n_kh-XI5-49" value="" style="endArrow=none;html=1;rounded=0;exitX=1;exitY=0.75;exitDx=0;exitDy=0;entryX=0;entryY=0.5;entryDx=0;entryDy=0;" edge="1" parent="1" source="O8dPDMGA-BvvGlYx2Ja5-44" target="IEXKmhQgGFk5n_kh-XI5-48">
          <mxGeometry width="50" height="50" relative="1" as="geometry">
            <mxPoint x="855" y="1400" as="sourcePoint" />
            <mxPoint x="1245" y="1320" as="targetPoint" />
          </mxGeometry>
        </mxCell>
        <mxCell id="IEXKmhQgGFk5n_kh-XI5-50" value="" style="endArrow=none;html=1;rounded=0;exitX=1;exitY=0.5;exitDx=0;exitDy=0;entryX=0;entryY=0.5;entryDx=0;entryDy=0;" edge="1" parent="1" source="IEXKmhQgGFk5n_kh-XI5-48">
          <mxGeometry width="50" height="50" relative="1" as="geometry">
            <mxPoint x="890" y="1030" as="sourcePoint" />
            <mxPoint x="1280" y="950" as="targetPoint" />
          </mxGeometry>
        </mxCell>
        <mxCell id="IEXKmhQgGFk5n_kh-XI5-51" value="Role" style="rounded=0;whiteSpace=wrap;html=1;shadow=1;" vertex="1" parent="1">
          <mxGeometry x="290" y="440" width="120" height="60" as="geometry" />
        </mxCell>
        <mxCell id="IEXKmhQgGFk5n_kh-XI5-52" value="" style="endArrow=none;html=1;rounded=0;exitX=0.39;exitY=-0.007;exitDx=0;exitDy=0;exitPerimeter=0;shadow=1;" edge="1" parent="1" source="IEXKmhQgGFk5n_kh-XI5-51">
          <mxGeometry width="50" height="50" relative="1" as="geometry">
            <mxPoint x="305" y="420" as="sourcePoint" />
            <mxPoint x="275" y="290" as="targetPoint" />
          </mxGeometry>
        </mxCell>
        <mxCell id="IEXKmhQgGFk5n_kh-XI5-53" value="" style="endArrow=none;html=1;rounded=0;exitX=0.383;exitY=-0.033;exitDx=0;exitDy=0;exitPerimeter=0;shadow=1;" edge="1" parent="1" source="IEXKmhQgGFk5n_kh-XI5-51" target="IEXKmhQgGFk5n_kh-XI5-54">
          <mxGeometry width="50" height="50" relative="1" as="geometry">
            <mxPoint x="250" y="420" as="sourcePoint" />
            <mxPoint x="190" y="300" as="targetPoint" />
            <Array as="points" />
          </mxGeometry>
        </mxCell>
        <mxCell id="IEXKmhQgGFk5n_kh-XI5-54" value="role_id" style="ellipse;whiteSpace=wrap;html=1;shadow=1;" vertex="1" parent="1">
          <mxGeometry x="140" y="260" width="80" height="40" as="geometry" />
        </mxCell>
        <mxCell id="IEXKmhQgGFk5n_kh-XI5-55" value="role_name" style="ellipse;whiteSpace=wrap;html=1;shadow=1;" vertex="1" parent="1">
          <mxGeometry x="235" y="250" width="80" height="40" as="geometry" />
        </mxCell>
        <mxCell id="IEXKmhQgGFk5n_kh-XI5-56" value="Category" style="rounded=0;whiteSpace=wrap;html=1;shadow=1;" vertex="1" parent="1">
          <mxGeometry x="1200" y="350" width="120" height="60" as="geometry" />
        </mxCell>
        <mxCell id="IEXKmhQgGFk5n_kh-XI5-57" value="" style="endArrow=none;html=1;rounded=0;exitX=0.39;exitY=-0.007;exitDx=0;exitDy=0;exitPerimeter=0;shadow=1;" edge="1" parent="1" source="IEXKmhQgGFk5n_kh-XI5-56">
          <mxGeometry width="50" height="50" relative="1" as="geometry">
            <mxPoint x="1215" y="330" as="sourcePoint" />
            <mxPoint x="1185" y="200" as="targetPoint" />
          </mxGeometry>
        </mxCell>
        <mxCell id="IEXKmhQgGFk5n_kh-XI5-58" value="" style="endArrow=none;html=1;rounded=0;exitX=0.383;exitY=-0.033;exitDx=0;exitDy=0;exitPerimeter=0;shadow=1;" edge="1" parent="1" source="IEXKmhQgGFk5n_kh-XI5-56" target="IEXKmhQgGFk5n_kh-XI5-59">
          <mxGeometry width="50" height="50" relative="1" as="geometry">
            <mxPoint x="1160" y="330" as="sourcePoint" />
            <mxPoint x="1100" y="210" as="targetPoint" />
            <Array as="points" />
          </mxGeometry>
        </mxCell>
        <mxCell id="IEXKmhQgGFk5n_kh-XI5-59" value="category_id" style="ellipse;whiteSpace=wrap;html=1;shadow=1;" vertex="1" parent="1">
          <mxGeometry x="1050" y="170" width="80" height="40" as="geometry" />
        </mxCell>
        <mxCell id="IEXKmhQgGFk5n_kh-XI5-60" value="title" style="ellipse;whiteSpace=wrap;html=1;shadow=1;" vertex="1" parent="1">
          <mxGeometry x="1145" y="160" width="80" height="40" as="geometry" />
        </mxCell>
        <mxCell id="IEXKmhQgGFk5n_kh-XI5-61" value="Contains" style="rhombus;whiteSpace=wrap;html=1;" vertex="1" parent="1">
          <mxGeometry x="1335" y="460" width="80" height="80" as="geometry" />
        </mxCell>
        <mxCell id="IEXKmhQgGFk5n_kh-XI5-62" value="1" style="text;html=1;align=center;verticalAlign=middle;resizable=0;points=[];autosize=1;strokeColor=none;fillColor=none;" vertex="1" parent="1">
          <mxGeometry x="515" y="858" width="30" height="30" as="geometry" />
        </mxCell>
        <mxCell id="IEXKmhQgGFk5n_kh-XI5-65" value="1" style="text;html=1;align=center;verticalAlign=middle;resizable=0;points=[];autosize=1;strokeColor=none;fillColor=none;" vertex="1" parent="1">
          <mxGeometry x="555" y="1198" width="30" height="30" as="geometry" />
        </mxCell>
        <mxCell id="IEXKmhQgGFk5n_kh-XI5-66" value="n" style="text;html=1;align=center;verticalAlign=middle;resizable=0;points=[];autosize=1;strokeColor=none;fillColor=none;" vertex="1" parent="1">
          <mxGeometry x="925" y="1208" width="30" height="30" as="geometry" />
        </mxCell>
        <mxCell id="IEXKmhQgGFk5n_kh-XI5-70" value="n" style="text;html=1;align=center;verticalAlign=middle;resizable=0;points=[];autosize=1;strokeColor=none;fillColor=none;" vertex="1" parent="1">
          <mxGeometry x="1015" y="848" width="30" height="30" as="geometry" />
        </mxCell>
        <mxCell id="IEXKmhQgGFk5n_kh-XI5-71" value="" style="endArrow=none;html=1;rounded=0;exitX=0.417;exitY=-0.033;exitDx=0;exitDy=0;exitPerimeter=0;entryX=1;entryY=0.5;entryDx=0;entryDy=0;" edge="1" parent="1" source="IEXKmhQgGFk5n_kh-XI5-14" target="IEXKmhQgGFk5n_kh-XI5-61">
          <mxGeometry width="50" height="50" relative="1" as="geometry">
            <mxPoint x="1380" y="630" as="sourcePoint" />
            <mxPoint x="1470" y="460" as="targetPoint" />
          </mxGeometry>
        </mxCell>
        <mxCell id="IEXKmhQgGFk5n_kh-XI5-72" value="" style="endArrow=none;html=1;rounded=0;entryX=0;entryY=0.5;entryDx=0;entryDy=0;" edge="1" parent="1" target="IEXKmhQgGFk5n_kh-XI5-61">
          <mxGeometry width="50" height="50" relative="1" as="geometry">
            <mxPoint x="1320" y="380" as="sourcePoint" />
            <mxPoint x="1450" y="250" as="targetPoint" />
          </mxGeometry>
        </mxCell>
        <mxCell id="IEXKmhQgGFk5n_kh-XI5-73" value="1" style="text;html=1;align=center;verticalAlign=middle;resizable=0;points=[];autosize=1;strokeColor=none;fillColor=none;" vertex="1" parent="1">
          <mxGeometry x="1325" y="428" width="30" height="30" as="geometry" />
        </mxCell>
        <mxCell id="IEXKmhQgGFk5n_kh-XI5-74" value="n" style="text;html=1;align=center;verticalAlign=middle;resizable=0;points=[];autosize=1;strokeColor=none;fillColor=none;" vertex="1" parent="1">
          <mxGeometry x="1375" y="618" width="30" height="30" as="geometry" />
        </mxCell>
        <mxCell id="IEXKmhQgGFk5n_kh-XI5-78" value="" style="endArrow=none;html=1;rounded=0;shadow=1;" edge="1" parent="1">
          <mxGeometry width="50" height="50" relative="1" as="geometry">
            <mxPoint x="740" y="1200" as="sourcePoint" />
            <mxPoint x="920" y="1080" as="targetPoint" />
          </mxGeometry>
        </mxCell>
        <mxCell id="IEXKmhQgGFk5n_kh-XI5-80" value="post_id" style="ellipse;whiteSpace=wrap;html=1;shadow=1;fillColor=#009900;" vertex="1" parent="1">
          <mxGeometry x="885" y="1040" width="110" height="40" as="geometry" />
        </mxCell>
      </root>
    </mxGraphModel>
  </diagram>
</mxfile>
